<svg width="22" height="22" viewBox="0 0 22 22" fill="none" xmlns="http://www.w3.org/2000/svg">
<path fill-rule="evenodd" clip-rule="evenodd" d="M1.84467 1.84467C3.17914 0.510201 5.17603 0 7.75 0H13.75C16.324 0 18.3209 0.510201 19.6553 1.84467C20.9898 3.17914 21.5 5.17603 21.5 7.75V13.75C21.5 16.324 20.9898 18.3209 19.6553 19.6553C18.3209 20.9898 16.324 21.5 13.75 21.5H7.75C5.17603 21.5 3.17914 20.9898 1.84467 19.6553C0.510201 18.3209 0 16.324 0 13.75V7.75C0 5.17603 0.510201 3.17914 1.84467 1.84467ZM2.90533 2.90533C1.9898 3.82086 1.5 5.32397 1.5 7.75V13.75C1.5 16.176 1.9898 17.6791 2.90533 18.5947C3.82086 19.5102 5.32397 20 7.75 20H13.75C16.176 20 17.6791 19.5102 18.5947 18.5947C19.5102 17.6791 20 16.176 20 13.75V7.75C20 5.32397 19.5102 3.82086 18.5947 2.90533C17.6791 1.9898 16.176 1.5 13.75 1.5H7.75C5.32397 1.5 3.82086 1.9898 2.90533 2.90533Z" fill="#03A454"/>
<path fill-rule="evenodd" clip-rule="evenodd" d="M7.75 5.5C7.05964 5.5 6.5 6.05964 6.5 6.75C6.5 7.44036 7.05964 8 7.75 8C8.44036 8 9 7.44036 9 6.75C9 6.05964 8.44036 5.5 7.75 5.5ZM5 6.75C5 5.23122 6.23122 4 7.75 4C9.26878 4 10.5 5.23122 10.5 6.75C10.5 8.26878 9.26878 9.5 7.75 9.5C6.23122 9.5 5 8.26878 5 6.75Z" fill="#03A454"/>
<path fill-rule="evenodd" clip-rule="evenodd" d="M18.6313 11.8189C18.1324 11.3904 17.2876 11.3904 16.7887 11.8189L12.6287 15.3889C11.5676 16.3001 9.89229 16.3003 8.8313 15.3889L8.82488 15.3834L8.49844 15.0965C8.05001 14.7137 7.28368 14.6668 6.76784 15.0128L1.83806 18.3227C1.49417 18.5536 1.02822 18.462 0.797325 18.1181C0.566435 17.7742 0.658043 17.3082 1.00194 17.0773L5.93194 13.7673C6.99502 13.0541 8.50679 13.1261 9.47875 13.9611L9.48512 13.9666L9.81149 14.2535C10.3108 14.6796 11.1533 14.6788 11.6513 14.2511L15.8113 10.6811C16.8724 9.76987 18.5477 9.76972 19.6087 10.6811L21.2387 12.081C21.5529 12.3509 21.5888 12.8244 21.3189 13.1387C21.0491 13.4529 20.5756 13.4888 20.2613 13.2189L18.6313 11.8189Z" fill="#03A454"/>
</svg>
