<?xml version="1.0" encoding="utf-8"?>
<!-- Generator: Adobe Illustrator 25.0.0, SVG Export Plug-In . SVG Version: 6.00 Build 0)  -->
<svg version="1.1" id="Layer_1" xmlns="http://www.w3.org/2000/svg" xmlns:xlink="http://www.w3.org/1999/xlink" x="0px" y="0px"
	 viewBox="0 0 22 22" style="enable-background:new 0 0 22 22;" xml:space="preserve">
<style type="text/css">
	.st0{fill:#292D32;}
</style>
<g>
	<path class="st0" d="M21,21.8c-0.2,0-0.4-0.1-0.5-0.2l-2-2c-0.3-0.3-0.3-0.8,0-1.1s0.8-0.3,1.1,0l2,2c0.3,0.3,0.3,0.8,0,1.1
		C21.4,21.7,21.2,21.8,21,21.8z M10.5,20.8c-2.7,0-5.3-1.1-7.2-3c-1.9-1.9-3-4.5-3-7.2c0-2.7,1.1-5.3,3-7.2c1.9-1.9,4.5-3,7.2-3
		c1.4,0,2.7,0.3,3.9,0.8c1.2,0.5,2.4,1.3,3.3,2.2c1,1,1.7,2.1,2.2,3.3c0.5,1.3,0.8,2.6,0.8,3.9c0,1.4-0.3,2.7-0.8,3.9
		c-0.5,1.2-1.3,2.4-2.2,3.3c-1,1-2.1,1.7-3.3,2.2C13.2,20.5,11.9,20.8,10.5,20.8z M10.5,1.8C8.2,1.8,6,2.7,4.3,4.3
		C2.7,6,1.8,8.2,1.8,10.5c0,2.3,0.9,4.5,2.6,6.2c1.7,1.7,3.8,2.6,6.2,2.6c1.2,0,2.3-0.2,3.3-0.7c1.1-0.4,2-1.1,2.8-1.9
		c0.8-0.8,1.5-1.8,1.9-2.8c0.4-1.1,0.7-2.2,0.7-3.3c0-1.2-0.2-2.3-0.7-3.3c-0.4-1.1-1.1-2-1.9-2.8c-0.8-0.8-1.8-1.5-2.8-1.9
		C12.8,2,11.7,1.8,10.5,1.8z"/>
</g>
</svg>
