<svg width="20" height="18" viewBox="0 0 20 18" fill="none" xmlns="http://www.w3.org/2000/svg">
<path d="M0.999217 11.0893C1.22422 11.0893 1.44697 10.9888 1.59397 10.7968L1.92022 10.373C2.40847 13.2695 4.43722 15.7475 7.31722 16.7473C8.20372 17.0548 9.11347 17.2025 10.0112 17.2025C12.6992 17.2025 15.286 15.8765 16.8347 13.5418C17.0635 13.1968 16.969 12.731 16.624 12.5023C16.2775 12.272 15.814 12.368 15.5837 12.713C13.897 15.2585 10.6997 16.3355 7.80997 15.3305C5.41222 14.498 3.73972 12.4108 3.38272 9.98676L4.02472 10.481C4.35397 10.7323 4.82422 10.6723 5.07622 10.3438C5.32897 10.0153 5.26822 9.54501 4.93972 9.29226C4.93972 9.29226 3.16597 7.92651 3.16147 7.92351C2.78872 7.63626 2.25847 7.47501 1.92097 7.91526L0.405966 9.88251C0.153216 10.211 0.213967 10.6813 0.542467 10.934C0.678217 11.0383 0.839467 11.0893 0.999217 11.0893Z" fill="#03A454"/>
<path d="M3.37672 5.49801C3.72097 5.72676 4.18672 5.63226 4.41697 5.28726C6.10372 2.74251 9.30397 1.66551 12.1907 2.66976C14.5885 3.50226 16.261 5.58951 16.618 8.01351L15.976 7.51926C15.6467 7.26726 15.1765 7.32726 14.9245 7.65651C14.6717 7.98501 14.7325 8.45526 15.061 8.70801C15.061 8.70801 16.8347 10.073 16.8392 10.0768C17.2187 10.3685 17.737 10.532 18.0797 10.085L19.5947 8.11776C19.8475 7.78926 19.7867 7.31901 19.4582 7.06626C19.1297 6.81351 18.6587 6.87501 18.4067 7.20351L18.0805 7.62726C17.5922 4.73076 15.5635 2.25276 12.6835 1.25301C9.14347 0.0245132 5.23147 1.34226 3.16597 4.45776C2.93722 4.80351 3.03172 5.26851 3.37672 5.49801Z" fill="#03A454"/>
</svg>
